# xmcd CD database file
#
# Track frame offsets:
#	150
#	18940
#	38232
#	53720
#	68195
#	84630
#	104117
#	121810
#	135845
#	152845
#	168670
#	184960
#	203627
#	215127
#
# Disc length: 3054 seconds
#
# Revision: 1
# Processed by: cddbd v1.5.2PL0 Copyright (c) Steve Scherf et al.
# Submitted via: CDex 1.51
#
DISCID=c60bec0e
DTITLE=Amigos - Vol 2
DYEAR=1900
DGENRE=
TTITLE0=Fim de festa
TTITLE1=O grande amor da minha vida
TTITLE2=Ela e demais
TTITLE3=Dengo
TTITLE4=A gente se entrega
TTITLE5=Agenda rabiscada
TTITLE6=Dia de rodeio
TTITLE7=Sua ida (I need you)
TTITLE8=Todo tempo e pouco pra te amar
TTITLE9=Deixei de ser cowboy por ela
TTITLE10=Entre o beijo e a boca
TTITLE11=Casa comigo
TTITLE12=Chute pro gooorrr!
TTITLE13=A gostosona
EXTD=
EXTT0=
EXTT1=
EXTT2=
EXTT3=
EXTT4=
EXTT5=
EXTT6=
EXTT7=
EXTT8=
EXTT9=
EXTT10=
EXTT11=
EXTT12=
EXTT13=
PLAYORDER=
